<mxfile host="app.diagrams.net" modified="2023-10-05T16:36:20.797Z" agent="Mozilla/5.0 (Windows NT 10.0; Win64; x64) AppleWebKit/537.36 (KHTML, like Gecko) Chrome/117.0.0.0 Safari/537.36" etag="V3J-sur7Ro6W3d1kZTKB" version="21.7.5" type="device">
  <diagram name="1 oldal" id="ahjQI1UJOVAjjXg1dHlr">
    <mxGraphModel dx="1194" dy="760" grid="1" gridSize="10" guides="1" tooltips="1" connect="1" arrows="1" fold="1" page="1" pageScale="1" pageWidth="827" pageHeight="1169" math="0" shadow="0">
      <root>
        <mxCell id="0" />
        <mxCell id="1" parent="0" />
        <mxCell id="zHU5oScRpRzeY5uOm6MT-9" style="edgeStyle=orthogonalEdgeStyle;rounded=0;orthogonalLoop=1;jettySize=auto;html=1;entryX=0.5;entryY=0;entryDx=0;entryDy=0;" edge="1" parent="1" source="zHU5oScRpRzeY5uOm6MT-1" target="zHU5oScRpRzeY5uOm6MT-5">
          <mxGeometry relative="1" as="geometry" />
        </mxCell>
        <mxCell id="zHU5oScRpRzeY5uOm6MT-1" value="START" style="ellipse;whiteSpace=wrap;html=1;aspect=fixed;" vertex="1" parent="1">
          <mxGeometry x="210" y="80" width="140" height="140" as="geometry" />
        </mxCell>
        <mxCell id="zHU5oScRpRzeY5uOm6MT-2" value="END" style="ellipse;whiteSpace=wrap;html=1;" vertex="1" parent="1">
          <mxGeometry x="402.5" y="620" width="130" height="100" as="geometry" />
        </mxCell>
        <mxCell id="zHU5oScRpRzeY5uOm6MT-13" style="edgeStyle=orthogonalEdgeStyle;rounded=0;orthogonalLoop=1;jettySize=auto;html=1;entryX=0;entryY=0.5;entryDx=0;entryDy=0;" edge="1" parent="1" source="zHU5oScRpRzeY5uOm6MT-3" target="zHU5oScRpRzeY5uOm6MT-12">
          <mxGeometry relative="1" as="geometry" />
        </mxCell>
        <mxCell id="zHU5oScRpRzeY5uOm6MT-18" style="edgeStyle=orthogonalEdgeStyle;rounded=0;orthogonalLoop=1;jettySize=auto;html=1;" edge="1" parent="1" source="zHU5oScRpRzeY5uOm6MT-3" target="zHU5oScRpRzeY5uOm6MT-17">
          <mxGeometry relative="1" as="geometry" />
        </mxCell>
        <mxCell id="zHU5oScRpRzeY5uOm6MT-3" value="ciklus amíg i &amp;lt; tombhossz és tomb[i] != tulajdonsag" style="rhombus;whiteSpace=wrap;html=1;" vertex="1" parent="1">
          <mxGeometry x="202.5" y="430" width="155" height="160" as="geometry" />
        </mxCell>
        <mxCell id="zHU5oScRpRzeY5uOm6MT-5" value="Be: tomb, tulajdonsag" style="rounded=0;whiteSpace=wrap;html=1;" vertex="1" parent="1">
          <mxGeometry x="220" y="260" width="120" height="60" as="geometry" />
        </mxCell>
        <mxCell id="zHU5oScRpRzeY5uOm6MT-8" style="edgeStyle=orthogonalEdgeStyle;rounded=0;orthogonalLoop=1;jettySize=auto;html=1;entryX=0.5;entryY=0;entryDx=0;entryDy=0;" edge="1" parent="1" source="zHU5oScRpRzeY5uOm6MT-7" target="zHU5oScRpRzeY5uOm6MT-3">
          <mxGeometry relative="1" as="geometry" />
        </mxCell>
        <mxCell id="zHU5oScRpRzeY5uOm6MT-7" value="i = 0" style="rounded=0;whiteSpace=wrap;html=1;" vertex="1" parent="1">
          <mxGeometry x="220" y="320" width="120" height="60" as="geometry" />
        </mxCell>
        <mxCell id="zHU5oScRpRzeY5uOm6MT-10" value="I" style="rounded=0;whiteSpace=wrap;html=1;" vertex="1" parent="1">
          <mxGeometry x="350" y="420" width="50" height="40" as="geometry" />
        </mxCell>
        <mxCell id="zHU5oScRpRzeY5uOm6MT-11" value="H" style="rounded=0;whiteSpace=wrap;html=1;" vertex="1" parent="1">
          <mxGeometry x="167.5" y="570" width="52.5" height="50" as="geometry" />
        </mxCell>
        <mxCell id="zHU5oScRpRzeY5uOm6MT-12" value="i = i + 1" style="rounded=0;whiteSpace=wrap;html=1;" vertex="1" parent="1">
          <mxGeometry x="407.5" y="480" width="120" height="60" as="geometry" />
        </mxCell>
        <mxCell id="zHU5oScRpRzeY5uOm6MT-16" value="" style="curved=1;endArrow=classic;html=1;rounded=0;" edge="1" parent="1">
          <mxGeometry width="50" height="50" relative="1" as="geometry">
            <mxPoint x="527.5" y="520" as="sourcePoint" />
            <mxPoint x="280" y="430" as="targetPoint" />
            <Array as="points">
              <mxPoint x="577.5" y="520" />
              <mxPoint x="580" y="420" />
              <mxPoint x="510" y="340" />
            </Array>
          </mxGeometry>
        </mxCell>
        <mxCell id="zHU5oScRpRzeY5uOm6MT-19" style="edgeStyle=orthogonalEdgeStyle;rounded=0;orthogonalLoop=1;jettySize=auto;html=1;" edge="1" parent="1" source="zHU5oScRpRzeY5uOm6MT-17" target="zHU5oScRpRzeY5uOm6MT-2">
          <mxGeometry relative="1" as="geometry" />
        </mxCell>
        <mxCell id="zHU5oScRpRzeY5uOm6MT-17" value="Ki : i, van" style="rounded=0;whiteSpace=wrap;html=1;" vertex="1" parent="1">
          <mxGeometry x="220" y="630" width="120" height="60" as="geometry" />
        </mxCell>
      </root>
    </mxGraphModel>
  </diagram>
</mxfile>
